<svg width="32" height="32" viewBox="0 0 32 32" fill="none" xmlns="http://www.w3.org/2000/svg">
<path d="M13.3666 31.3335C11.6162 31.3335 9.96829 31.0006 8.42296 30.3349C6.87763 29.6691 5.53151 28.7626 4.38463 27.6155C3.23751 26.4686 2.33107 25.1246 1.66529 23.5835C0.999515 22.0424 0.666626 20.4035 0.666626 18.6669C0.666626 16.9164 0.999515 15.2685 1.66529 13.7232C2.33107 12.1779 3.23751 10.8317 4.38463 9.68486C5.53151 8.53775 6.87763 7.6313 8.42296 6.96553C9.96829 6.29975 11.6162 5.96686 13.3666 5.96686C13.5375 5.96686 13.6986 5.9703 13.85 5.97719C14.0013 5.98408 14.1624 5.9943 14.3333 6.00786V8.00786C14.1624 7.9943 14.0013 7.98408 13.85 7.97719C13.6986 7.9703 13.5375 7.96686 13.3666 7.96686C10.3888 7.96686 7.86107 9.00575 5.78329 11.0835C3.70551 13.1613 2.66663 15.6891 2.66663 18.6669C2.66663 21.6224 3.70551 24.1391 5.78329 26.2169C7.86107 28.2946 10.3888 29.3335 13.3666 29.3335C16.3222 29.3335 18.8388 28.2946 20.9166 26.2169C22.9944 24.1391 24.0333 21.6224 24.0333 18.6669H26.0333C26.0333 20.4035 25.7004 22.0424 25.0346 23.5835C24.3688 25.1246 23.4624 26.4686 22.3153 27.6155C21.1684 28.7626 19.8278 29.6691 18.2936 30.3349C16.7594 31.0006 15.1171 31.3335 13.3666 31.3335ZM17.9896 24.7155L12.3333 19.0592V12.0772H14.3333V18.2745L19.382 23.3232L17.9896 24.7155ZM29.0306 15.4745C28.4426 12.4727 27.1051 9.86853 25.018 7.66186C22.9308 5.45497 20.4292 3.96264 17.513 3.18486V1.13086C20.9965 1.95308 23.97 3.66042 26.4333 6.25286C28.8964 8.84508 30.44 11.919 31.064 15.4745H29.0306ZM23.5203 15.4745C23.0641 13.9616 22.3112 12.6274 21.2616 11.4719C20.2121 10.3163 18.9625 9.42919 17.513 8.81053V6.66953C19.4941 7.35486 21.2064 8.47708 22.65 10.0362C24.0935 11.5951 25.0768 13.4079 25.6 15.4745H23.5203Z" fill="#00AB56"/>
</svg>
