<svg width="32" height="32" viewBox="0 0 32 32" fill="none" xmlns="http://www.w3.org/2000/svg">
<path d="M12.2563 3.66699V1.66699H19.7436V3.66699H12.2563ZM15 18.4107H17V10.9233H15V18.4107ZM16 28.667C14.4411 28.667 12.9744 28.3695 11.6 27.7747C10.2255 27.1798 9.02385 26.3678 7.99496 25.3387C6.96585 24.3098 6.15385 23.1081 5.55896 21.7337C4.96407 20.3592 4.66663 18.8925 4.66663 17.3337C4.66663 15.7748 4.96407 14.3081 5.55896 12.9337C6.15385 11.5592 6.96585 10.3575 7.99496 9.32866C9.02385 8.29955 10.2255 7.48755 11.6 6.89266C12.9744 6.29777 14.4411 6.00033 16 6.00033C17.3351 6.00033 18.621 6.22688 19.8576 6.67999C21.0943 7.13288 22.2426 7.78155 23.3026 8.62599L24.964 6.96466L26.369 8.36966L24.7076 10.031C25.5521 11.091 26.2007 12.2393 26.6536 13.476C27.1067 14.7127 27.3333 15.9985 27.3333 17.3337C27.3333 18.8925 27.0358 20.3592 26.441 21.7337C25.8461 23.1081 25.0341 24.3098 24.005 25.3387C22.9761 26.3678 21.7744 27.1798 20.4 27.7747C19.0255 28.3695 17.5588 28.667 16 28.667ZM16 26.667C18.5777 26.667 20.7777 25.7559 22.6 23.9337C24.4222 22.1114 25.3333 19.9114 25.3333 17.3337C25.3333 14.7559 24.4222 12.5559 22.6 10.7337C20.7777 8.91144 18.5777 8.00033 16 8.00033C13.4222 8.00033 11.2222 8.91144 9.39996 10.7337C7.57774 12.5559 6.66663 14.7559 6.66663 17.3337C6.66663 19.9114 7.57774 22.1114 9.39996 23.9337C11.2222 25.7559 13.4222 26.667 16 26.667Z" fill="#00AB56"/>
</svg>
