<svg width="32" height="32" viewBox="0 0 32 32" fill="none" xmlns="http://www.w3.org/2000/svg">
<path d="M7.48696 19.3333V22H4.66663V10.7693L7.74096 2H24.259L27.3333 10.7693V22H24.513V19.3333H7.48696ZM7.47696 8.76933H24.523L22.841 4H9.15896L7.47696 8.76933ZM9.95163 15.795C10.4367 15.795 10.8482 15.6251 11.186 15.2853C11.5235 14.9458 11.6923 14.5334 11.6923 14.0483C11.6923 13.5632 11.5225 13.1518 11.183 12.814C10.8432 12.4764 10.4307 12.3077 9.94563 12.3077C9.46052 12.3077 9.04918 12.4774 8.71163 12.817C8.37385 13.1568 8.20496 13.5692 8.20496 14.0543C8.20496 14.5394 8.37485 14.9508 8.71463 15.2883C9.05418 15.6261 9.46651 15.795 9.95163 15.795ZM22.0543 15.795C22.5394 15.795 22.9507 15.6251 23.2883 15.2853C23.6261 14.9458 23.795 14.5334 23.795 14.0483C23.795 13.5632 23.6251 13.1518 23.2853 12.814C22.9457 12.4764 22.5334 12.3077 22.0483 12.3077C21.5632 12.3077 21.1517 12.4774 20.814 12.817C20.4764 13.1568 20.3076 13.5692 20.3076 14.0543C20.3076 14.5394 20.4774 14.9508 20.817 15.2883C21.1567 15.6261 21.5692 15.795 22.0543 15.795ZM17.2436 30.436L9.83329 26.718H14.7563V24.2307L22.1666 27.9487H17.2436V30.436ZM6.66663 17.3333H25.3333V10.7693H6.66663V17.3333Z" fill="#00AB56"/>
</svg>
