<svg width="181" height="181" viewBox="0 0 181 181" fill="none" xmlns="http://www.w3.org/2000/svg">
<path d="M90.4998 123.857C91.8146 123.857 92.9169 123.413 93.8069 122.524C94.6968 121.634 95.1417 120.532 95.1417 119.217C95.1417 117.902 94.6968 116.8 93.8069 115.91C92.9169 115.02 91.8146 114.575 90.4998 114.575C89.1851 114.575 88.0827 115.02 87.1928 115.91C86.3029 116.8 85.8579 117.902 85.8579 119.217C85.8579 120.532 86.3029 121.634 87.1928 122.524C88.0827 123.413 89.1851 123.857 90.4998 123.857ZM86.729 101.522H94.2707V55.6918H86.729V101.522ZM65.4087 150.834L30.1665 115.659V65.4092L65.3408 30.167H115.591L150.833 65.3413V115.591L115.659 150.834H65.4087ZM68.629 143.292H112.371L143.292 112.371V68.6295L112.371 37.7087H68.629L37.7082 68.6295V112.371L68.629 143.292Z" fill="white"/>
</svg>
