<svg width="32" height="32" viewBox="0 0 32 32" fill="none" xmlns="http://www.w3.org/2000/svg">
<path d="M28.4105 27.538L23.6925 22.82H10.6668C10.0182 22.82 9.46284 22.589 9.00084 22.127C8.53884 21.6652 8.30784 21.1099 8.30784 20.461V19.6407H22.8208C23.4835 19.6407 24.0508 19.4047 24.5228 18.9327C24.9948 18.4607 25.2308 17.8932 25.2308 17.2303V7.99967H26.0515C26.7002 7.99967 27.2555 8.23067 27.7175 8.69267C28.1795 9.15467 28.4105 9.71001 28.4105 10.3587V27.538ZM5.58984 16.8613L7.47718 14.974H20.1542C20.2737 14.974 20.372 14.9356 20.4488 14.8587C20.5257 14.7818 20.5642 14.6835 20.5642 14.5637V5.74334C20.5642 5.62356 20.5257 5.52523 20.4488 5.44834C20.372 5.37145 20.2737 5.33301 20.1542 5.33301H6.00018C5.88062 5.33301 5.78229 5.37145 5.70518 5.44834C5.62829 5.52523 5.58984 5.62356 5.58984 5.74334V16.8613ZM3.58984 21.692V5.74334C3.58984 5.08045 3.82584 4.51301 4.29784 4.04101C4.76984 3.56901 5.33729 3.33301 6.00018 3.33301H20.1542C20.8168 3.33301 21.3842 3.56901 21.8562 4.04101C22.3282 4.51301 22.5642 5.08045 22.5642 5.74334V14.5637C22.5642 15.2266 22.3282 15.794 21.8562 16.266C21.3842 16.738 20.8168 16.974 20.1542 16.974H8.30784L3.58984 21.692Z" fill="#B7B7B7"/>
</svg>
