<svg width="32" height="32" viewBox="0 0 32 32" fill="none" xmlns="http://www.w3.org/2000/svg">
<path d="M8.03132 23.056C9.16465 22.2151 10.3993 21.551 11.7353 21.0637C13.0711 20.5766 14.4929 20.333 16.0007 20.333C17.5084 20.333 18.9302 20.5766 20.266 21.0637C21.602 21.551 22.8367 22.2151 23.97 23.056C24.7989 22.1449 25.4557 21.0902 25.9403 19.892C26.425 18.6938 26.6673 17.3963 26.6673 15.9997C26.6673 13.0441 25.6284 10.5275 23.5507 8.44967C21.4729 6.3719 18.9562 5.33301 16.0007 5.33301C13.0451 5.33301 10.5284 6.3719 8.45065 8.44967C6.37287 10.5275 5.33398 13.0441 5.33398 15.9997C5.33398 17.3963 5.57632 18.6938 6.06098 19.892C6.54565 21.0902 7.20243 22.1449 8.03132 23.056ZM16.001 16.9997C14.7837 16.9997 13.7571 16.5819 12.9213 15.7463C12.0853 14.9106 11.6673 13.884 11.6673 12.6667C11.6673 11.4493 12.0851 10.4228 12.9207 9.58701C13.7564 8.75101 14.783 8.33301 16.0003 8.33301C17.2177 8.33301 18.2442 8.75078 19.08 9.58634C19.916 10.4221 20.334 11.4487 20.334 12.666C20.334 13.8833 19.9162 14.9099 19.0807 15.7457C18.2449 16.5817 17.2183 16.9997 16.001 16.9997ZM16.0007 28.6663C14.2418 28.6663 12.5918 28.3356 11.0507 27.674C9.50954 27.0125 8.16898 26.1116 7.02898 24.9713C5.88876 23.8313 4.98787 22.4908 4.32632 20.9497C3.66476 19.4086 3.33398 17.7586 3.33398 15.9997C3.33398 14.2408 3.66476 12.5908 4.32632 11.0497C4.98787 9.50856 5.88876 8.16801 7.02898 7.02801C8.16898 5.88778 9.50954 4.9869 11.0507 4.32534C12.5918 3.66379 14.2418 3.33301 16.0007 3.33301C17.7595 3.33301 19.4095 3.66379 20.9507 4.32534C22.4918 4.9869 23.8323 5.88778 24.9723 7.02801C26.1125 8.16801 27.0134 9.50856 27.675 11.0497C28.3365 12.5908 28.6673 14.2408 28.6673 15.9997C28.6673 17.7586 28.3365 19.4086 27.675 20.9497C27.0134 22.4908 26.1125 23.8313 24.9723 24.9713C23.8323 26.1116 22.4918 27.0125 20.9507 27.674C19.4095 28.3356 17.7595 28.6663 16.0007 28.6663ZM16.0007 26.6663C17.204 26.6663 18.3642 26.4728 19.4813 26.0857C20.5984 25.6983 21.5903 25.1569 22.457 24.4613C21.5903 23.7911 20.6113 23.2689 19.52 22.8947C18.4284 22.5202 17.2553 22.333 16.0007 22.333C14.746 22.333 13.5708 22.518 12.475 22.888C11.3792 23.2582 10.4023 23.7827 9.54432 24.4613C10.411 25.1569 11.4029 25.6983 12.52 26.0857C13.6371 26.4728 14.7973 26.6663 16.0007 26.6663ZM16.0007 14.9997C16.664 14.9997 17.2187 14.7766 17.6647 14.3303C18.1109 13.8843 18.334 13.3297 18.334 12.6663C18.334 12.003 18.1109 11.4483 17.6647 11.0023C17.2187 10.5561 16.664 10.333 16.0007 10.333C15.3373 10.333 14.7827 10.5561 14.3367 11.0023C13.8904 11.4483 13.6673 12.003 13.6673 12.6663C13.6673 13.3297 13.8904 13.8843 14.3367 14.3303C14.7827 14.7766 15.3373 14.9997 16.0007 14.9997Z" fill="#B7B7B7"/>
</svg>
